<svg width="747" height="1024" viewBox="0 0 747 1024" fill="none" xmlns="http://www.w3.org/2000/svg">
<path fill-rule="evenodd" clip-rule="evenodd" d="M261.591 258.48C257.791 259.821 251.716 262.891 248.091 265.302C241.324 269.803 212.685 294 211.283 296.401C210.852 297.138 207.077 301.512 202.892 306.121C186.998 323.628 186 325.239 186 333.399C186 342.572 190.269 353.314 207.517 387.55C218.934 410.209 224 421.283 224 423.58C224 425.403 222.2 434.198 220 443.123C217.8 452.049 216 460.766 216 462.494C216 469.83 221.012 481.849 228.658 492.848C231.085 496.34 234.496 501.965 236.238 505.348C239.188 511.079 239.408 512.219 239.452 522C239.496 531.56 239.748 532.948 242.273 537.5C243.799 540.25 247.174 545.025 249.773 548.111C260.982 561.417 265.753 568.238 272.082 580C275.781 586.875 282.478 599.025 286.964 607C291.45 614.975 298.963 629.375 303.658 639C308.354 648.625 316.703 664.15 322.212 673.5C331.694 689.593 336.039 696.317 349.05 715.026C353.771 721.815 355.411 725.498 360.029 739.68C368.188 764.741 368.968 765.735 393.648 782.5C408.208 792.39 424.361 808.192 442.716 830.5C459.524 850.929 464.637 856.648 465.418 855.894C465.982 855.349 461.313 849.34 437.138 819.5C425.644 805.313 409.422 789.469 398.5 781.763C377.349 766.84 374.116 764.131 371.012 758.735C369.356 755.856 365.731 746.394 362.955 737.708C358.472 723.675 357.172 720.836 351.278 712.208C347.631 706.869 342.355 699.125 339.554 695C330.14 681.135 315.356 654.679 303.233 630C296.613 616.525 288.612 601.225 285.452 596C282.292 590.775 277.152 581.974 274.029 576.441C268.938 567.422 260.405 555.579 248.978 541.669C244.145 535.787 241.524 527.662 242.455 521.45C243.615 513.715 248.684 505.909 264.158 488.028C267.819 483.797 274.518 475.647 279.044 469.917C289.715 456.408 324.227 422.24 330.23 419.242C335.072 416.824 341.424 416.349 346.429 418.033C352.887 420.205 375.718 426.072 387.352 428.55C412.257 433.854 426.58 437.31 429.25 438.661C432.212 440.158 432.546 441.434 431.025 445.435C430.488 446.846 430.444 448 430.927 448C431.41 448 432.306 446.561 432.919 444.803C433.932 441.898 434.177 441.749 435.603 443.174C437.028 444.599 436.979 445.121 435.066 448.872C433.907 451.142 433.364 453 433.858 453C434.353 453 435.317 451.65 436 450C436.683 448.35 437.619 447 438.079 447C439.999 447 444.187 456.386 446.176 465.148L448.31 474.549L445.655 478.755C442.473 483.795 442.408 485.296 444.996 493.987C447.34 501.859 451.922 508.643 456.071 510.388L459.024 511.629L456.607 513.9C451.857 518.362 441.401 518.828 432.5 514.973C428.068 513.054 425.484 510.481 421.981 504.5C420.692 502.3 417.694 497.907 415.319 494.739C412.943 491.57 411 488.623 411 488.19C411 487.756 412.531 486.848 414.402 486.172C418.04 484.856 420.705 482.371 419.63 481.297C419.27 480.936 417.359 481.412 415.384 482.354C409.547 485.138 404.253 485.324 392 483.178C385.675 482.07 378.025 480.876 375 480.525C368.228 479.739 359.715 477.36 354.804 474.881C350.082 472.496 348.705 474.242 353.168 476.956L356.435 478.943L337.831 497.721C324.958 510.715 317.155 519.52 312.5 526.303C308.8 531.694 306.046 536.379 306.38 536.713C307.337 537.67 310.346 534.499 316.614 525.929C319.803 521.568 322.726 518 323.108 518C323.49 518 324.728 519.568 325.859 521.485C326.99 523.402 330.522 526.619 333.708 528.634C336.893 530.648 341.852 534.495 344.726 537.182C350.647 542.717 351.325 541.668 339 546.041C331.75 548.614 331.44 548.774 332.212 549.545C333.598 550.932 368.302 540.287 387 532.739C400.625 527.239 399.46 527.386 424.5 527.997C432.092 528.182 437.514 527.764 442 526.647C445.575 525.758 450.525 525.026 453 525.023C459.92 525.012 472.757 528.423 475.502 531.002C478.453 533.774 482 541.117 482 544.454C482 547.601 484.596 549 490.434 549C492.945 549 495 549.369 495 549.82C495 551.638 487.541 559.194 483.924 561.039C478.083 564.019 468.423 565.969 459.419 565.985C454.975 565.993 446.425 566.914 440.419 568.032C434.414 569.149 426.053 570.439 421.84 570.897L414.181 571.73L399.34 582.345C381.254 595.282 375.416 598.476 367 600.043C357.769 601.762 356.752 602.409 362.704 602.778C366.323 603.003 370.053 602.355 374.954 600.651C380.178 598.834 382 598.539 382 599.509C382 600.988 373.302 610.195 368 614.329L364.5 617.058L368.845 614.96C374.347 612.304 381.727 604.981 382.6 601.311C383.329 598.246 385.738 595 387.284 595C390.267 595 384.171 616.435 378.184 627C373.567 635.146 373.628 635 374.862 635C375.427 635 377.719 632.446 379.954 629.324C384.862 622.471 389.671 608.258 390.212 599.012C390.543 593.354 390.905 592.354 393.046 591.185C395.336 589.934 396.367 590.362 408.5 597.591C422.827 606.128 427.409 609.356 433.75 615.379C438.76 620.138 439.282 619.478 434.86 613.976C431.486 609.777 422.193 603.437 407 594.967C401.775 592.054 397.275 589.48 397 589.246C396.382 588.72 400.385 585.407 409.444 578.95C415.205 574.843 417.126 574 420.73 574C423.118 574 431.608 572.875 439.597 571.5C447.586 570.125 457.418 569 461.445 569C468.182 569 468.818 569.18 469.404 571.25C470.921 576.603 471.216 593.756 469.988 605.276C469.272 611.999 468.678 622.337 468.669 628.25C468.66 634.163 468.393 639 468.076 638.999C467.759 638.998 466.289 636.842 464.809 634.207C461.296 627.951 454.543 620.332 450.793 618.393C446.293 616.066 446.574 617.173 451.464 621.04C457.107 625.502 462.134 633.131 465.95 643.027C470.487 654.792 471.609 662.922 470.271 674.352C469.276 682.854 468.562 685.017 463.447 695.017C458.403 704.877 456.613 707.289 448.173 715.593C442.914 720.767 439.08 725 439.653 725C441.245 725 455.259 712.741 459.268 707.842C464.076 701.967 470.476 689.793 472.536 682.608C474.854 674.52 474.766 659.476 472.352 651C471.199 646.954 470.689 642.801 471 640L471.5 635.5L474.694 641.135C478.9 648.557 487.914 660.426 501.93 677C520.863 699.388 527.881 706.796 541.491 718.759C556.466 731.923 581.446 751 583.708 751C585.024 751 585.048 750.762 583.872 749.344C582.527 747.722 572.918 739.862 564 733.092C555.122 726.352 533.393 707.195 527.927 701.289C517.779 690.326 493.028 661.192 486.438 652.456C482.872 647.727 478.276 640.627 476.227 636.679L472.5 629.5L472.944 617C473.653 597.038 473.563 575.794 472.753 572L472.006 568.5L477.835 566.787C486.443 564.257 492.955 559.483 495.975 553.488C497.364 550.731 499.287 547.368 500.25 546.015C502.645 542.648 502.445 537.962 499.732 533.898C497.026 529.842 489.031 526.787 476.427 524.993L468.355 523.844L466.169 516.416C464.533 510.852 464.142 507.646 464.612 503.642C465.223 498.443 465.032 497.895 457.687 483.763C453.533 475.77 449.843 467.491 449.488 465.365C448.2 457.65 444.958 449.626 441.021 444.412C437.154 439.29 437 438.797 437 431.558C437 425.439 437.702 422.014 440.75 413.265L444.5 402.5L444.385 382.5C444.278 363.847 444.089 361.896 441.575 353.527C436.617 337.022 430.389 328.259 422.013 326.004C416.795 324.598 410.654 326.189 407.277 329.819C405.906 331.294 402.195 335.2 399.031 338.5C390.2 347.711 388.067 351.792 385.46 364.475L384.849 367.451L382.96 364.975C381.922 363.614 379.164 358.97 376.832 354.656C369.267 340.658 365.122 338.246 332.691 328.974C322.411 326.035 314 323.337 314 322.979C314 322.621 316.813 322.229 320.25 322.107C329.374 321.785 334.504 320.379 340.466 316.565C347.122 312.307 350.785 307.557 351.771 301.904C352.818 295.904 351.857 287.958 349.684 284.64C347.369 281.107 336.702 276.181 318 270.007C304.993 265.713 301.171 264.256 290.502 259.528C280.647 255.16 271.898 254.843 261.591 258.48ZM261.198 262.445C253.656 265.247 246.88 269.62 237.477 277.756C233.64 281.076 227.583 286.226 224.018 289.199C217.531 294.61 193.059 321.152 190.985 325.028C190.047 326.781 190.394 327.594 193.342 330.542C197.27 334.47 195.321 335.572 191.206 331.75C188.937 329.642 188.807 329.624 189.149 331.465C189.35 332.545 191.04 334.458 192.905 335.715C195.533 337.486 195.857 338 194.348 338C193.277 338 191.868 337.467 191.217 336.817C188.891 334.491 188.83 336.979 191.047 343.686C194.392 353.805 222.119 411.519 225.037 414.437C225.654 415.054 226.039 412.905 226.108 408.45C226.389 390.291 228.521 370.791 231.548 358.71C232.896 353.325 234 348.713 234 348.46C234 348.207 231.498 348 228.441 348C224.99 348 223.116 347.621 223.5 347C223.84 346.45 225.554 345.994 227.309 345.986C233.737 345.959 234.658 345.217 237.022 338.161C238.25 334.497 240.129 329.768 241.198 327.651C244.013 322.077 250.878 314.982 255.5 312.871C260.096 310.772 270.899 310.372 275.902 312.116C280.266 313.637 280.757 312.691 278.077 307.923C275.846 303.954 275.793 302.136 277.948 303.468C278.542 303.835 279.921 305.886 281.013 308.025C282.808 311.543 283.678 312.117 290.127 314.038C309.035 319.669 324.474 320.433 334.103 316.214C342.309 312.618 349 305.112 349 299.502C349 298.241 348.405 298.38 345.916 300.22C343.56 301.962 341.496 302.5 337.166 302.5C330.05 302.5 317.227 297.948 312.865 293.874C309.792 291.003 309.748 290.83 310.223 283.424C310.489 279.282 311.223 275.377 311.853 274.747C313.587 273.013 313.256 272.281 310.418 271.569C308.998 271.212 303.37 268.914 297.912 266.46C292.453 264.007 287.569 262 287.057 262C286.545 262 286.36 263.688 286.646 265.75C287.038 268.58 286.904 269.132 286.098 268C285.511 267.175 285.024 265.503 285.015 264.285C285.007 263.067 284.144 261.612 283.097 261.052C281.339 260.111 281.23 260.354 281.665 264.267L282.134 268.5L280.116 264.25C278.11 260.025 278.066 260 272.799 260.052C269.828 260.081 264.732 261.132 261.198 262.445ZM314.06 276.341C312.661 280.022 311.74 287.606 312.429 289.777C313.642 293.598 335.584 301.102 341.25 299.634C344.574 298.773 348.206 292.847 347.82 288.915C347.47 285.356 345.978 284.262 335.945 280.213C330.661 278.08 317.385 274 315.728 274C315.301 274 314.55 275.054 314.06 276.341ZM266.834 317.75C269.833 321.59 273.708 330.626 272.762 331.572C272.472 331.861 270.859 329.264 269.178 325.799C265.566 318.358 262.842 315 260.415 315C258.815 315 258.841 315.208 260.701 317.25C263.379 320.191 265.011 323.425 264.956 325.684C264.927 326.878 264.271 326.302 263.041 324C262.012 322.075 260.206 319.478 259.026 318.228C256.927 316.005 256.818 315.994 253.873 317.728C247.809 321.299 243.086 329.689 238.803 344.5C232.447 366.48 231.462 373.072 230.061 403C229.265 420.02 228.827 422.998 224.598 440.22C222.069 450.516 220 460.989 220 463.495C220 470.473 223.196 478.08 231.032 489.755C234.962 495.61 239.163 503.038 240.369 506.263L242.562 512.125L247.223 505.312C249.786 501.566 254.003 496.025 256.595 493C259.186 489.975 265.808 481.921 271.311 475.103C279.301 465.204 280.831 462.82 278.908 463.269C277.584 463.579 272.225 464.74 267 465.849C261.775 466.958 256.712 468.169 255.75 468.54C254.756 468.923 254 468.753 254 468.147C254 467.56 255.806 466.539 258.014 465.878C261.184 464.928 262.669 463.635 265.072 459.729C266.746 457.008 268.366 455.033 268.672 455.338C268.978 455.644 268.225 457.517 267 459.5C265.775 461.483 265.032 463.365 265.35 463.683C265.668 464.001 268.914 463.511 272.563 462.595C276.212 461.678 280.053 461.2 281.099 461.531C282.144 461.863 283.015 461.767 283.034 461.317C283.053 460.868 285.294 458.032 288.015 455.015C292.788 449.725 292.884 449.501 290.732 448.705C287.587 447.542 284.369 444.305 282.949 440.876C282.012 438.614 281.289 438.091 279.767 438.574C277.988 439.138 277.868 438.874 278.528 435.85C278.93 434.007 280.3 430.139 281.572 427.254C287.022 414.9 293 392.184 293 383.83C293 380.45 292.622 379.869 289.599 378.606C286.625 377.363 281 370.928 281 368.768C281 367.163 283.289 368.098 285.149 370.463C289.705 376.254 294.005 377.636 322.5 382.463C327.45 383.302 333.85 384.459 336.721 385.034C341.298 385.951 342.567 385.812 347.002 383.904C349.784 382.707 352.385 382.053 352.78 382.45C353.827 383.5 349.105 387.029 345.757 387.699C344.18 388.014 343.083 388.773 343.319 389.386C344.655 392.855 357.084 408.79 361.856 413.151C368.292 419.034 373.909 421.737 381.567 422.637C387.022 423.278 396.351 421.496 395.787 419.92C395.629 419.48 393.934 418.069 392.021 416.784C387.077 413.465 382.571 406.388 382.632 402.038C382.658 400.092 384.122 394.568 385.885 389.762L389.089 381.025L380.891 367.262C371.036 350.718 367.958 346 367.022 346C366.634 346 365.783 347.781 365.131 349.958C363.75 354.565 361.49 356.761 362.685 352.334C363.106 350.775 363.461 347.965 363.475 346.089C363.499 342.825 363.22 342.564 356.975 339.994C353.386 338.517 342.811 335.179 333.475 332.575C312.338 326.68 299.055 322.81 282.966 317.858C276.072 315.736 268.963 314 267.169 314H263.906L266.834 317.75ZM412.611 329.27C409.962 330.45 410.395 330.555 417.81 330.529C422.345 330.513 425.519 330.121 425.036 329.637C423.556 328.155 415.637 327.921 412.611 329.27ZM408.238 335.048C399.48 339.514 391.983 350.939 389.141 364.153L387.374 372.365L389.937 376.933C391.347 379.446 395.856 386.339 399.958 392.251C406.129 401.145 407.854 403 409.958 402.998C413.319 402.995 430.126 406.047 431.859 406.975C434.653 408.469 430.571 408.723 424.366 407.441C420.992 406.743 415.758 405.864 412.735 405.486C407.276 404.804 407.242 404.816 407.716 407.295C408.712 412.507 403.041 420.197 395.463 423.907C392.86 425.182 392.015 426.012 393 426.327C393.825 426.591 402.375 428.672 412 430.952C421.625 433.232 430.428 435.337 431.563 435.629C433.504 436.13 433.635 435.71 433.781 428.547C433.887 423.345 434.581 419.476 435.968 416.339C437.086 413.813 438 411.402 438 410.982C438 410.563 435.723 410.887 432.939 411.703C429.954 412.578 426.775 412.891 425.189 412.466C422.79 411.824 423.092 411.62 428 410.576C435.049 409.077 437.628 407.619 439.443 404.11C443.237 396.773 442.133 368.583 437.412 352.294C432.661 335.9 430.793 333.912 419.535 333.273C413.763 332.945 411.735 333.264 408.238 335.048ZM368 350.989C368 351.598 367.103 353.953 366.007 356.222C363.962 360.455 364.216 363.067 366.325 359.492C368.557 355.709 369.904 351.058 368.94 350.463C368.423 350.143 368 350.38 368 350.989ZM295.983 385.75C295.974 388.363 295.154 394.475 294.16 399.334L292.354 408.168L295.927 410.765C297.892 412.193 301.975 415.228 305 417.51C308.025 419.792 311.924 422.485 313.664 423.494L316.828 425.33L321.664 421.303C324.324 419.089 327.94 416.54 329.7 415.638C334.26 413.304 342.256 413.605 352.051 416.479C356.698 417.842 360.91 418.967 361.412 418.979C361.914 418.991 360.47 417.087 358.203 414.75C354.569 411.002 340.544 392.074 339.787 389.895C339.45 388.927 328.499 386.534 315.038 384.489C309.792 383.692 303.928 382.581 302.007 382.02C296.333 380.364 296.002 380.569 295.983 385.75ZM387.64 392.768C386.188 397.04 385 401.436 385 402.536C385 405.498 389.554 411.665 394.259 415.073L398.394 418.068L401.424 415.037C406.378 410.084 405.738 406.31 397.977 394.716C394.415 389.393 391.225 385.03 390.89 385.019C390.554 385.009 389.092 388.496 387.64 392.768ZM289.987 413.534C289.444 414.962 289 416.576 289 417.12C289 417.664 287.638 421.309 285.974 425.22C282.98 432.256 282.965 432.379 284.545 437.135C286.21 442.149 290.824 447 293.927 447C294.903 447 299.748 442.749 304.693 437.553L313.685 428.105L302.33 419.521L290.974 410.937L289.987 413.534ZM335.549 420.189C334.713 422.161 336.699 432.696 338.067 433.542C339.176 434.227 339.185 434.366 337.554 425.5C336.71 420.914 336.019 419.082 335.549 420.189ZM348.482 422.5C348.89 424.15 349.584 428.875 350.026 433L350.829 440.5L350.665 431.299C350.551 424.952 350.072 421.695 349.121 420.799C347.96 419.705 347.859 419.974 348.482 422.5ZM329 427.155C329 433.583 331.308 441.064 334.06 443.554C336.561 445.818 336.508 445.351 333.518 438.821C332.153 435.84 330.883 431.065 330.696 428.211C330.232 421.138 329 420.371 329 427.155ZM447.264 481.393L445.13 485.786L447.104 492.367C449.049 498.847 453.766 506.261 457.309 508.405C460.158 510.13 462.258 506.591 461.743 500.93C461.446 497.654 459.715 493.618 455.631 486.68C452.498 481.356 449.814 477 449.667 477C449.519 477 448.438 478.977 447.264 481.393ZM347.449 492.783L335.398 505.5L340.656 514C343.548 518.675 349.196 526.062 353.207 530.416C360.711 538.561 360.07 539.338 351.832 532.085C347.396 528.179 340.743 518.924 336.494 510.75C335.422 508.688 334.213 507 333.806 507C332.469 507 326 513.458 326 514.793C326 518.121 329.63 522.418 335.793 526.386C339.482 528.76 344.708 533.076 347.407 535.977L352.314 541.25L360.907 538.528C365.633 537.031 376.25 533.272 384.5 530.175C400.795 524.057 397.951 524.44 423.728 524.893C429.752 524.999 437.538 524.402 442.668 523.44C448.551 522.338 453.429 522.027 457.69 522.483C462.613 523.011 463.999 522.867 463.994 521.83C463.987 520.134 462.019 513 461.559 513C461.368 513 459.797 514.322 458.067 515.937C453.698 520.018 445.694 521.633 437.963 519.992C428.338 517.95 425.185 515.547 418.287 505C406.842 487.499 407.288 488 403.185 487.999C401.158 487.999 396.35 487.363 392.5 486.586C388.65 485.809 383.025 484.893 380 484.551C374.806 483.962 364.287 481.776 361 480.601C360.008 480.247 355.421 484.37 347.449 492.783ZM452.73 533.296C453.308 540.323 453.583 540.917 454.906 538C455.892 535.825 455.985 536.147 455.617 540.477C455.238 544.942 455.339 545.257 456.597 543.536C458.235 541.296 458.451 534.711 456.977 531.957C456.414 530.906 455.133 529.606 454.128 529.069C452.447 528.169 452.336 528.505 452.73 533.296ZM478 530.048C478 530.437 478.651 531.296 479.447 531.956C480.924 533.182 483.368 539.209 484.48 544.37C485.084 547.172 485.226 547.229 490.488 546.793C496.898 546.261 499 544.784 499 540.812C499 536.85 497.504 534.312 494.146 532.576C491.05 530.975 478 528.932 478 530.048ZM448.35 532C448.693 533.375 448.979 535.737 448.986 537.25C448.994 538.763 449.509 540 450.132 540C451.608 540 450.616 532.184 448.943 530.629C448.004 529.757 447.869 530.068 448.35 532ZM408 531.378C408 531.586 408.711 533.458 409.58 535.537C410.449 537.617 411.148 541.959 411.132 545.186C411.116 548.635 411.495 550.812 412.052 550.468C413.706 549.446 413.049 539.706 411.027 535.25C409.404 531.675 408 529.879 408 531.378ZM394.75 534.574C392.387 536.966 395.94 549 399.008 549C399.579 549 399.253 547.789 398.283 546.309C397.313 544.829 396.29 541.412 396.01 538.717C395.729 536.021 395.163 534.157 394.75 534.574ZM402.076 536.25C402.24 538.937 404.676 544.332 405.283 543.351C406.128 541.984 404.179 535 402.953 535C402.429 535 402.034 535.563 402.076 536.25ZM293.604 567.25C291.327 570.805 289.812 577.875 290.587 581.334C291.25 584.292 291.382 584.087 292.593 578.215C293.306 574.758 294.589 570.526 295.444 568.811C297.276 565.14 297.297 565 296.023 565C295.486 565 294.397 566.013 293.604 567.25ZM299.553 605.914C299.167 606.539 302.578 610.696 307.436 615.522C312.146 620.2 316 623.745 316 623.398C316 620.475 300.643 604.15 299.553 605.914ZM470.177 698.856C468.35 703.331 464.393 710.424 461.383 714.619C458.374 718.813 456.093 722.427 456.316 722.649C456.758 723.092 462.197 717.243 465.752 712.5C468.418 708.943 468.191 708.731 474.956 721.076C477.406 725.548 481.166 731.073 483.31 733.353C487.418 737.723 487.334 737.523 479.779 725C477.29 720.875 474.02 715.05 472.511 712.054L469.768 706.609L471.97 700.371C475.338 690.831 473.938 689.648 470.177 698.856Z" fill="black"/>
</svg>
